<svg width="27" height="27" viewBox="0 0 27 27" fill="none" xmlns="http://www.w3.org/2000/svg">
<path d="M24.1667 26.2471H2.83335C2.12611 26.2471 1.44783 25.9661 0.947738 25.4661C0.447639 24.966 0.166687 24.2877 0.166687 23.5805V8.97909C0.188851 8.53841 0.31839 8.10976 0.544036 7.73049C0.769681 7.35121 1.08458 7.03289 1.46135 6.80309L12.128 0.403125C12.5423 0.154714 13.0163 0.0234985 13.4993 0.0234985C13.9824 0.0234985 14.4564 0.154714 14.8707 0.403125L25.5374 6.80309C26.3386 7.28713 26.8307 8.1538 26.8334 9.0898V23.5805C26.8334 24.2877 26.5524 24.966 26.0523 25.4661C25.5522 25.9661 24.874 26.2471 24.1667 26.2471ZM2.83335 10.0711V23.5805H24.1667V10.0711L13.5 17.1818L2.83335 10.0711ZM13.5 2.68979L4.58802 8.03647L13.5 13.9778L22.4107 8.03647L13.5 2.68979Z" fill="#F0E3CA"/>
</svg>
