<svg width="31" height="21" viewBox="0 0 31 21" fill="none" xmlns="http://www.w3.org/2000/svg">
<path d="M18.1667 19.2472H12.8334C10.0044 19.2472 7.29126 18.1233 5.29089 16.123C3.2905 14.1226 2.16669 11.4094 2.16669 8.58049V1.91382H7.50002V8.58049C7.50002 9.99496 8.06192 11.3515 9.06215 12.3517C10.0623 13.3519 11.4189 13.9138 12.8334 13.9138V1.91382H18.1667V7.91382L18.2067 7.90849C19.668 7.72616 21.0125 7.01629 21.9873 5.91237C22.962 4.80845 23.4999 3.3865 23.5 1.91382H28.8334L28.3774 4.19511C28.1042 5.5606 27.5229 6.84563 26.6776 7.95222C25.8324 9.05881 24.7455 9.95778 23.5 10.5805C24.7111 10.984 25.7915 11.7057 26.628 12.67C27.4645 13.6344 28.0263 14.8059 28.2547 16.0619L28.8334 19.2472H23.5C23.4999 17.7745 22.962 16.3525 21.9873 15.2486C21.0125 14.1447 19.668 13.4348 18.2067 13.2525V19.2525L18.1667 19.2472Z" stroke="#F0E3CA" stroke-width="3" stroke-linecap="round" stroke-linejoin="round"/>
</svg>
